<svg xmlns="http://www.w3.org/2000/svg" version="1.1" xmlns:xlink="http://www.w3.org/1999/xlink" width="300" height="300"><svg xmlns="http://www.w3.org/2000/svg" version="1.1" xmlns:xlink="http://www.w3.org/1999/xlink" width="300" height="300"><svg id="uuid-732c8722-8c1c-4575-a58b-f58d019fc45f" xmlns="http://www.w3.org/2000/svg" viewBox="0 0 300 300"><path d="M80.86,249.62c24.22,23.91,53.46,35.87,87.73,35.87,22.77,0,44.51-5.85,65.21-17.55v-43.63c-5.9,4.97-11.52,9.21-16.85,12.73-5.33,3.52-10.48,6.32-15.45,8.38-8.9,4.14-19.72,6.21-32.45,6.21-24.64,0-45.44-8.64-62.42-25.93-5.09-5.19-9.41-10.73-12.97-16.63l-19.36,33.52c2.08,2.38,4.26,4.72,6.55,7.02Z" style="fill:#6275bc;"></path><path d="M233.81,97.14v-42.86c-13.57-7.91-27.48-13.13-41.71-15.69l-18.72,32.43c20.78,1.09,40.92,9.79,60.44,26.12Z" style="fill:#6275bc;"></path><path d="M106.64,97.45c16.87-17.7,37.63-26.55,62.26-26.55,1.49,0,2.98.05,4.47.12l18.72-32.43c-6.83-1.23-13.73-1.85-20.71-1.85-39.44,0-71.58,14.65-96.42,43.94-20.19,23.91-30.28,51.14-30.28,81.67s9.88,57.57,29.63,80.25l19.36-33.52c-8.32-13.75-12.49-29.43-12.49-47.03,0-25.46,8.49-46.99,25.46-64.59Z" style="fill:#3f497a;"></path><path d="M102.37,227.39c24.22,23.91,53.46,35.87,87.73,35.87,22.77,0,44.51-5.85,65.21-17.55v-43.63c-5.9,4.97-11.52,9.21-16.85,12.73-5.33,3.52-10.48,6.32-15.45,8.38-8.9,4.14-19.72,6.21-32.45,6.21-24.64,0-45.44-8.64-62.42-25.93-5.09-5.19-9.41-10.73-12.97-16.63l-19.36,33.52c2.08,2.38,4.26,4.72,6.55,7.02Z" style="fill:#465289;"></path><path d="M255.32,74.92v-42.86c-13.57-7.91-27.48-13.13-41.71-15.69l-18.72,32.43c20.78,1.09,40.92,9.79,60.44,26.12Z" style="fill:#465289;"></path><path d="M128.15,75.23c16.87-17.7,37.63-26.55,62.26-26.55,1.49,0,2.98.05,4.47.12l18.72-32.43c-6.83-1.23-13.73-1.85-20.71-1.85-39.44,0-71.58,14.65-96.42,43.94-20.19,23.91-30.28,51.14-30.28,81.67s9.88,57.57,29.63,80.25l19.36-33.52c-8.32-13.75-12.49-29.43-12.49-47.03,0-25.46,8.49-46.99,25.46-64.59Z" style="fill:#7187d8;"></path></svg></svg><style>@media (prefers-color-scheme: light) { :root { filter: none; } }
@media (prefers-color-scheme: dark) { :root { filter: none; } }
</style></svg>