<svg version="1.1" id="Layer_1" xmlns="http://www.w3.org/2000/svg" xmlns:xlink="http://www.w3.org/1999/xlink" x="0px" y="0px"
	 width="100%" viewBox="0 0 152 50" enable-background="new 0 0 152 50" xml:space="preserve">
<path fill="#FAFBFB" opacity="1.000000" stroke="none" 
	d="
M102.000000,51.000000 
	C68.000008,51.000000 34.500011,51.000000 1.000014,51.000000 
	C1.000009,34.333344 1.000009,17.666685 1.000005,1.000020 
	C51.666645,1.000013 102.333290,1.000013 152.999954,1.000007 
	C152.999969,17.666645 152.999969,34.333290 152.999985,50.999969 
	C136.166672,51.000000 119.333336,51.000000 102.000000,51.000000 
M15.897303,21.946690 
	C15.897303,21.946690 15.971016,21.899918 16.670185,21.916246 
	C17.132511,21.868221 17.594835,21.820198 18.567055,22.278938 
	C18.743185,22.970766 18.919313,23.662592 18.962845,24.959044 
	C18.969673,25.587040 18.976500,26.215038 18.359549,27.119938 
	C19.988766,29.143642 21.617983,31.167347 23.194286,33.125328 
	C21.726538,34.258652 20.953373,34.855652 19.731047,35.799473 
	C23.186089,35.799473 25.899645,35.799473 27.950624,35.799473 
	C24.770641,28.358759 21.572380,20.875277 18.374121,13.391793 
	C17.804224,13.363844 17.234327,13.335894 16.664431,13.307944 
	C15.826350,16.520693 14.988271,19.733440 13.550428,23.060347 
	C12.720003,24.684555 11.889577,26.308765 10.935883,28.654715 
	C9.709531,30.992392 8.483179,33.330070 7.195863,35.783958 
	C9.464728,35.783958 11.995649,35.783958 15.577372,35.783958 
	C11.212579,33.518555 10.631431,31.192053 13.921991,28.472063 
	C14.171062,28.266180 13.974161,27.520779 14.516490,26.547440 
	C14.669525,25.378691 14.822560,24.209944 15.010862,22.943991 
	C15.010862,22.943991 15.111694,22.966909 15.562821,22.855419 
	C15.840461,22.649727 15.957039,22.375469 15.897303,21.946690 
M119.570984,24.279255 
	C121.646523,28.282351 121.833229,32.145317 118.562286,35.668007 
	C121.049484,35.668007 123.370872,35.668007 124.500206,35.668007 
	C124.122810,32.920494 123.592789,30.412603 123.468262,27.884737 
	C123.174980,21.930855 122.218819,21.138594 115.472160,22.660450 
	C113.400696,22.300886 111.329224,21.941320 108.071968,21.375927 
	C112.140251,24.646572 111.968040,32.272400 109.143158,35.856171 
	C111.569832,35.856171 113.847969,35.856171 116.269958,35.856171 
	C112.072159,30.366358 113.396782,24.852314 119.570984,24.279255 
M53.322010,35.912663 
	C56.573582,36.744633 59.819511,36.079762 60.564236,32.784264 
	C61.224968,29.860455 60.738590,26.294050 59.547161,23.534286 
	C59.105148,22.510441 55.217834,22.973984 52.121151,22.932981 
	C50.217144,22.485231 48.313133,22.037479 45.019024,21.262831 
	C49.787132,25.510553 50.074291,37.593102 46.565212,41.025162 
	C49.011372,41.025162 51.335358,41.025162 54.086365,41.025162 
	C50.812317,38.187874 50.812317,38.187874 53.322010,35.912663 
M36.322010,35.912663 
	C39.573582,36.744633 42.819519,36.079762 43.564240,32.784260 
	C44.224964,29.860451 43.738586,26.294050 42.547161,23.534283 
	C42.105152,22.510439 38.217834,22.973982 35.121151,22.932981 
	C33.217144,22.485231 31.313135,22.037481 28.019007,21.262829 
	C32.787121,25.510548 33.074291,37.593105 29.565220,41.025162 
	C32.011379,41.025162 34.335358,41.025162 37.086365,41.025162 
	C33.812317,38.187874 33.812317,38.187874 36.322010,35.912663 
M83.961617,29.094807 
	C86.518906,29.431364 86.599060,27.989120 86.193481,26.081568 
	C85.487885,22.762917 83.189110,21.341568 80.103722,21.424900 
	C76.524803,21.521563 74.304382,23.519518 73.829895,27.192867 
	C73.351021,30.900278 73.846306,34.369797 77.785019,35.840988 
	C80.678085,36.921608 83.528824,36.643593 84.543846,32.846783 
	C84.567490,32.758343 84.845467,32.749264 84.984741,32.668530 
	C85.006516,32.655910 84.920349,32.457100 85.172478,33.241001 
	C83.437698,33.645569 81.428810,34.784241 80.077827,34.252235 
	C78.537125,33.645515 77.582748,31.549852 75.533798,29.095266 
	C79.189316,29.095266 81.155350,29.095266 83.961617,29.094807 
M98.826851,13.923043 
	C98.010643,13.971795 97.194435,14.020547 96.150185,14.082919 
	C101.246910,16.808348 101.724159,31.616133 97.244438,35.597923 
	C100.191246,35.597923 103.289047,35.597923 107.127861,35.597923 
	C102.135368,32.901974 101.621437,18.023085 105.885429,13.923409 
	C103.650673,13.923409 101.674377,13.923409 98.826851,13.923043 
M67.888275,13.847990 
	C66.557312,13.947417 65.226357,14.046844 63.427025,14.181258 
	C67.585068,17.332144 67.896263,31.453945 64.387726,35.787987 
	C66.835037,35.787987 69.239349,35.787987 70.861526,35.787987 
	C70.278656,33.781590 69.353584,31.872992 69.226189,29.912556 
	C68.883705,24.642115 68.881996,19.349527 67.888275,13.847990 
M127.796402,24.622604 
	C127.519089,26.881502 126.335243,29.605005 127.194427,31.281437 
	C128.263199,33.366806 130.821991,35.248447 133.120529,35.934898 
	C134.512939,36.350739 136.630798,34.337402 138.422729,33.415436 
	C138.166611,32.868137 137.910492,32.320839 137.654373,31.773540 
	C135.609085,33.852570 133.360855,36.602123 131.072266,32.869877 
	C130.064163,31.225851 129.838608,28.684803 130.214828,26.735754 
	C130.539490,25.053789 132.220459,23.633621 133.301819,22.097715 
	C133.195206,21.848560 133.088577,21.599405 132.981964,21.350250 
	C131.395996,22.208420 129.810043,23.066591 127.796402,24.622604 
z"/>
<path fill="#150D14" opacity="1.000000" stroke="none" 
	d="
M14.150192,22.946190 
	C14.988271,19.733440 15.826350,16.520693 16.664431,13.307944 
	C17.234327,13.335894 17.804224,13.363844 18.374121,13.391793 
	C21.572380,20.875277 24.770641,28.358759 27.950624,35.799473 
	C25.899645,35.799473 23.186089,35.799473 19.731047,35.799473 
	C20.953373,34.855652 21.726538,34.258652 23.194286,33.125328 
	C21.617983,31.167347 19.988766,29.143642 18.987841,27.010193 
	C19.442570,26.051773 19.269007,25.203096 19.095444,24.354420 
	C18.919313,23.662592 18.743185,22.970766 18.322960,21.718533 
	C17.699860,20.628904 17.320856,20.099680 16.941853,19.570456 
	C16.618240,20.346943 16.294628,21.123430 15.971016,21.899918 
	C15.971016,21.899918 15.897303,21.946690 15.700302,22.072823 
	C15.264314,22.399651 15.133779,22.655636 15.111694,22.966909 
	C15.111694,22.966909 15.010862,22.943991 14.789285,22.949047 
	C14.567707,22.954102 14.150192,22.946190 14.150192,22.946190 
z"/>
<path fill="#171318" opacity="1.000000" stroke="none" 
	d="
M83.541504,29.095036 
	C81.155350,29.095266 79.189316,29.095266 75.533798,29.095266 
	C77.582748,31.549852 78.537125,33.645515 80.077827,34.252235 
	C81.428810,34.784241 83.437698,33.645569 85.172478,33.241001 
	C84.920349,32.457100 85.006516,32.655910 84.984741,32.668530 
	C84.845467,32.749264 84.567490,32.758343 84.543846,32.846783 
	C83.528824,36.643593 80.678085,36.921608 77.785019,35.840988 
	C73.846306,34.369797 73.351021,30.900278 73.829895,27.192867 
	C74.304382,23.519518 76.524803,21.521563 80.103722,21.424900 
	C83.189110,21.341568 85.487885,22.762917 86.193481,26.081568 
	C86.599060,27.989120 86.518906,29.431364 83.541504,29.095036 
M83.004021,24.854111 
	C81.672615,24.273338 79.962334,22.896887 79.102425,23.306335 
	C77.938225,23.860678 77.426338,25.784979 76.634613,27.121571 
	C77.065567,27.629971 77.496521,28.138371 77.927467,28.646770 
	C79.686256,27.660685 81.445038,26.674597 83.004021,24.854111 
z"/>
<path fill="#180809" opacity="1.000000" stroke="none" 
	d="
M99.262466,13.923226 
	C101.674377,13.923409 103.650673,13.923409 105.885429,13.923409 
	C101.621437,18.023085 102.135368,32.901974 107.127861,35.597923 
	C103.289047,35.597923 100.191246,35.597923 97.244438,35.597923 
	C101.724159,31.616133 101.246910,16.808348 96.150185,14.082919 
	C97.194435,14.020547 98.010643,13.971795 99.262466,13.923226 
z"/>
<path fill="#070606" opacity="1.000000" stroke="none" 
	d="
M68.316635,13.956861 
	C68.881996,19.349527 68.883705,24.642115 69.226189,29.912556 
	C69.353584,31.872992 70.278656,33.781590 70.861526,35.787987 
	C69.239349,35.787987 66.835037,35.787987 64.387726,35.787987 
	C67.896263,31.453945 67.585068,17.332144 63.427025,14.181258 
	C65.226357,14.046844 66.557312,13.947417 68.316635,13.956861 
z"/>
<path fill="#060A12" opacity="1.000000" stroke="none" 
	d="
M35.851974,35.266113 
	C33.812317,38.187874 33.812317,38.187874 37.086365,41.025162 
	C34.335358,41.025162 32.011379,41.025162 29.565220,41.025162 
	C33.074291,37.593105 32.787121,25.510548 28.019007,21.262829 
	C31.313135,22.037481 33.217144,22.485231 35.585693,23.117172 
	C36.107422,23.480038 36.164608,23.658714 36.041641,24.168766 
	C33.651077,27.747911 33.874226,30.923206 36.074955,34.345329 
	C35.953583,34.857471 35.902779,35.061790 35.851974,35.266113 
z"/>
<path fill="#060A12" opacity="1.000000" stroke="none" 
	d="
M52.851974,35.266113 
	C50.812317,38.187874 50.812317,38.187874 54.086365,41.025162 
	C51.335358,41.025162 49.011372,41.025162 46.565212,41.025162 
	C50.074291,37.593102 49.787132,25.510553 45.019024,21.262831 
	C48.313133,22.037479 50.217144,22.485231 52.585693,23.117172 
	C53.107422,23.480038 53.164608,23.658714 53.041641,24.168766 
	C50.651077,27.747911 50.874226,30.923206 53.074955,34.345329 
	C52.953583,34.857471 52.902779,35.061790 52.851974,35.266113 
z"/>
<path fill="#251815" opacity="1.000000" stroke="none" 
	d="
M118.990356,23.744944 
	C113.396782,24.852314 112.072159,30.366358 116.269958,35.856171 
	C113.847969,35.856171 111.569832,35.856171 109.143158,35.856171 
	C111.968040,32.272400 112.140251,24.646572 108.071968,21.375927 
	C111.329224,21.941320 113.400696,22.300886 115.989693,22.682281 
	C117.334938,23.051056 118.162643,23.397999 118.990356,23.744944 
z"/>
<path fill="#100C17" opacity="1.000000" stroke="none" 
	d="
M128.010239,24.273682 
	C129.810043,23.066591 131.395996,22.208420 132.981964,21.350250 
	C133.088577,21.599405 133.195206,21.848560 133.301819,22.097715 
	C132.220459,23.633621 130.539490,25.053789 130.214828,26.735754 
	C129.838608,28.684803 130.064163,31.225851 131.072266,32.869877 
	C133.360855,36.602123 135.609085,33.852570 137.654373,31.773540 
	C137.910492,32.320839 138.166611,32.868137 138.422729,33.415436 
	C136.630798,34.337402 134.512939,36.350739 133.120529,35.934898 
	C130.821991,35.248447 128.263199,33.366806 127.194427,31.281437 
	C126.335243,29.605005 127.519089,26.881502 128.010239,24.273682 
z"/>
<path fill="#0F0C10" opacity="1.000000" stroke="none" 
	d="
M119.280670,24.012100 
	C118.162643,23.397999 117.334938,23.051056 116.310654,22.506767 
	C122.218819,21.138594 123.174980,21.930855 123.468262,27.884737 
	C123.592789,30.412603 124.122810,32.920494 124.500206,35.668007 
	C123.370872,35.668007 121.049484,35.668007 118.562286,35.668007 
	C121.833229,32.145317 121.646523,28.282351 119.280670,24.012100 
z"/>
<path fill="#1B0F0F" opacity="1.000000" stroke="none" 
	d="
M53.221790,23.837389 
	C53.164608,23.658714 53.107422,23.480038 52.975971,23.030291 
	C55.217834,22.973984 59.105148,22.510441 59.547161,23.534286 
	C60.738590,26.294050 61.224968,29.860455 60.564236,32.784264 
	C59.819511,36.079762 56.573582,36.744633 53.086990,35.589386 
	C52.902779,35.061790 52.953583,34.857471 53.398903,34.411377 
	C59.265938,34.718395 58.127052,30.593487 58.109253,27.676846 
	C58.091400,24.751312 56.978550,22.398405 53.221790,23.837389 
z"/>
<path fill="#1B0F0F" opacity="1.000000" stroke="none" 
	d="
M36.221790,23.837389 
	C36.164608,23.658714 36.107422,23.480038 35.975971,23.030289 
	C38.217834,22.973982 42.105152,22.510439 42.547161,23.534283 
	C43.738586,26.294050 44.224964,29.860451 43.564240,32.784260 
	C42.819519,36.079762 39.573582,36.744633 36.086990,35.589386 
	C35.902779,35.061790 35.953583,34.857471 36.398903,34.411377 
	C42.265938,34.718395 41.127052,30.593487 41.109253,27.676846 
	C41.091400,24.751312 39.978550,22.398405 36.221790,23.837389 
z"/>
<path fill="#141824" opacity="1.000000" stroke="none" 
	d="
M13.984567,27.026169 
	C13.974161,27.520779 14.171062,28.266180 13.921991,28.472063 
	C10.631431,31.192053 11.212579,33.518555 15.577372,35.783958 
	C11.995649,35.783958 9.464728,35.783958 7.195863,35.783958 
	C8.483179,33.330070 9.709531,30.992392 11.284019,28.151539 
	C12.416293,27.440966 13.200430,27.233566 13.984567,27.026169 
z"/>
<path fill="#DFE8E7" opacity="1.000000" stroke="none" 
	d="
M14.250528,26.786804 
	C13.200430,27.233566 12.416293,27.440966 11.345654,27.790670 
	C11.889577,26.308765 12.720003,24.684555 13.850310,23.003269 
	C14.150192,22.946190 14.567707,22.954102 14.771650,22.997648 
	C14.822560,24.209944 14.669525,25.378691 14.250528,26.786804 
z"/>
<path fill="#DFE8E7" opacity="1.000000" stroke="none" 
	d="
M16.320601,21.908081 
	C16.294628,21.123430 16.618240,20.346943 16.941853,19.570456 
	C17.320856,20.099680 17.699860,20.628904 18.068012,21.465151 
	C17.594835,21.820198 17.132511,21.868221 16.320601,21.908081 
z"/>
<path fill="#DFE8E7" opacity="1.000000" stroke="none" 
	d="
M19.029144,24.656731 
	C19.269007,25.203096 19.442570,26.051773 19.299728,26.871742 
	C18.976500,26.215038 18.969673,25.587040 19.029144,24.656731 
z"/>
<path fill="#DFE8E7" opacity="1.000000" stroke="none" 
	d="
M15.337257,22.911163 
	C15.133779,22.655636 15.264314,22.399651 15.707928,22.115799 
	C15.957039,22.375469 15.840461,22.649727 15.337257,22.911163 
z"/>
<path fill="#E4E9EA" opacity="1.000000" stroke="none" 
	d="
M83.103928,25.271309 
	C81.445038,26.674597 79.686256,27.660685 77.927467,28.646770 
	C77.496521,28.138371 77.065567,27.629971 76.634613,27.121571 
	C77.426338,25.784979 77.938225,23.860678 79.102425,23.306335 
	C79.962334,22.896887 81.672615,24.273338 83.103928,25.271309 
z"/>
<path fill="#EAF0F1" opacity="1.000000" stroke="none" 
	d="
M36.041641,24.168766 
	C39.978550,22.398405 41.091400,24.751312 41.109253,27.676846 
	C41.127052,30.593487 42.265938,34.718395 36.469467,34.103554 
	C33.874226,30.923206 33.651077,27.747911 36.041641,24.168766 
z"/>
<path fill="#EAF0F1" opacity="1.000000" stroke="none" 
	d="
M53.041641,24.168766 
	C56.978550,22.398405 58.091400,24.751312 58.109253,27.676846 
	C58.127052,30.593487 59.265938,34.718395 53.469467,34.103554 
	C50.874226,30.923206 50.651077,27.747911 53.041641,24.168766 
z"/>
</svg>