<?xml version="1.0" encoding="UTF-8"?><svg id="uuid-bd107938-bddf-41d8-bb58-0be8a1d2cb95" xmlns="http://www.w3.org/2000/svg" width="2200" height="490" viewBox="0 0 2200 490"><text transform="translate(25.05 427.42)" style="fill:#fff; font-family:Futura-Medium, Futura; font-size:108px; font-weight:500;"><tspan x="0" y="0" style="letter-spacing:0em;">T</tspan><tspan x="51.08" y="0" style="letter-spacing:-.01em;">h</tspan><tspan x="108.73" y="0">e </tspan><tspan x="201.81" y="0" style="letter-spacing:-.02em;">C</tspan><tspan x="275.07" y="0" style="letter-spacing:-.01em;">a</tspan><tspan x="338.46" y="0" style="letter-spacing:-.01em;">l</tspan><tspan x="364.11" y="0" style="letter-spacing:-.01em;">e</tspan><tspan x="422.3" y="0" style="letter-spacing:-.02em;">n</tspan><tspan x="479.83" y="0" style="letter-spacing:-.01em;">d</tspan><tspan x="543.25" y="0" style="letter-spacing:-.01em;">a</tspan><tspan x="606.64" y="0" style="letter-spacing:0em;">r</tspan><tspan x="646.75" y="0" style="letter-spacing:-.01em;">i</tspan><tspan x="672.36" y="0" style="letter-spacing:-.01em;">n</tspan><tspan x="730.08" y="0">g </tspan><tspan x="828.06" y="0" style="letter-spacing:-.01em;">a</tspan><tspan x="891.45" y="0" style="letter-spacing:-.02em;">n</tspan><tspan x="948.98" y="0">d </tspan><tspan x="1047.06" y="0" style="letter-spacing:-.01em;">S</tspan><tspan x="1108.87" y="0" style="letter-spacing:0em;">c</tspan><tspan x="1160.73" y="0" style="letter-spacing:-.01em;">h</tspan><tspan x="1218.39" y="0" style="letter-spacing:-.02em;">e</tspan><tspan x="1276.32" y="0" style="letter-spacing:-.01em;">d</tspan><tspan x="1339.56" y="0" style="letter-spacing:-.01em;">u</tspan><tspan x="1396.93" y="0" style="letter-spacing:-.01em;">li</tspan><tspan x="1448.15" y="0" style="letter-spacing:-.01em;">n</tspan><tspan x="1505.86" y="0">g </tspan><tspan x="1603.85" y="0" style="letter-spacing:-.02em;">C</tspan><tspan x="1677.06" y="0" style="letter-spacing:-.01em;">o</tspan><tspan x="1740.43" y="0" style="letter-spacing:-.02em;">n</tspan><tspan x="1797.58" y="0" style="letter-spacing:-.01em;">s</tspan><tspan x="1839.94" y="0" style="letter-spacing:-.01em;">o</tspan><tspan x="1903.31" y="0" style="letter-spacing:.02em;">r</tspan><tspan x="1946.03" y="0" style="letter-spacing:0em;">t</tspan><tspan x="1974.67" y="0" style="letter-spacing:-.02em;">i</tspan><tspan x="1999.8" y="0" style="letter-spacing:-.01em;">u</tspan><tspan x="2057.11" y="0">m</tspan></text><text transform="translate(23.88 294.35)" style="fill:#fff; font-family:Futura-Medium, Futura; font-size:318px; font-weight:500;"><tspan x="0" y="0" style="letter-spacing:0em;">C</tspan><tspan x="222.59" y="0" style="letter-spacing:-.01em;">A</tspan><tspan x="453.5" y="0" style="letter-spacing:-.05em;">L</tspan><tspan x="577.67" y="0" style="letter-spacing:-.03em;">C</tspan><tspan x="789.71" y="0" style="letter-spacing:-.02em;">O</tspan><tspan x="1067.4" y="0" style="letter-spacing:-.02em;">NN</tspan><tspan x="1592.19" y="0" style="letter-spacing:-.03em;">E</tspan><tspan x="1762.87" y="0" style="letter-spacing:0em;">C</tspan><tspan x="1986.32" y="0">T</tspan></text></svg>