<svg height="1000" viewBox="0 0 4837 1600" width="4837" xmlns="http://www.w3.org/2000/svg">
    <g fill="none" fill-rule="evenodd">
        <g fill="#004349" transform="translate(0 194)">
            <g fill-rule="nonzero">
                <path class="text" d="m4570.49862 652.615385v133.186813h-386.42699v79.912088h333.12672v119.868132h-333.12672v79.912092h333.12672c0 50.8034 20.32733 96.86137 53.29603 130.49165l.00424 2.69516h-572.97796v-546.065935z"></path>
                <path class="text" d="m3397.89256 652.615385 133.25069 332.967033 133.25069-332.967033h279.82645v546.065935h-186.55097v-332.967034l-133.25069 332.967034h-186.55096l-133.25069-332.967034v332.967034h-186.55096v-546.065935z"></path>
                <path class="text" d="m2211.96143 1198.68132v-546.065935h196.13804v241.284947l264.42902-241.284947h242.98883l-241.40066 223.029836 247.75331 323.036099h-239.01842l-153.25766-205.568427-121.49442 98.418857v107.14957z"></path>
                <path class="text" d="m1805.54683 1212c-75.04423 0-139.97612-11.52914-194.79567-34.58742-54.81954-23.05828-97.13172-55.90292-126.93652-98.53392-29.8048-42.63101-44.7072-93.707775-44.7072-153.230308 0-59.522534 14.9024-110.733362 44.7072-153.632486 29.8048-42.899123 72.11698-75.743765 126.93652-98.533924 54.81955-22.790159 119.75144-34.185239 194.79567-34.185239 75.57646 0 140.64141 11.39508 195.19484 34.185239s96.73255 55.634801 126.53735 98.533924c29.8048 42.899124 44.70721 94.109952 44.70721 153.632486 0 59.522533-14.90241 110.599298-44.70721 153.230308-29.8048 42.631-71.98392 75.47564-126.53735 98.53392s-119.61838 34.58742-195.19484 34.58742zm0-137.54531c25.01475 0 47.63446-3.3515 67.85915-10.05449 20.22469-6.70298 37.52212-16.35529 51.89229-28.9569 14.37017-12.60162 25.28086-27.48226 32.73206-44.641905 7.4512-17.159649 11.1768-35.928016 11.1768-56.305099v-19.304606c0-20.377083-3.7256-39.01139-11.1768-55.90292s-18.36189-31.504043-32.73206-43.837541-31.6676-21.851741-51.89229-28.554729-42.8444-10.054482-67.85915-10.054482c-25.01474 0-47.63446 3.351494-67.85915 10.054482-20.22468 6.702988-37.52211 16.221231-51.89228 28.554729-14.37018 12.333498-25.28086 26.946011-32.73206 43.837541s-11.1768 35.525837-11.1768 55.90292v19.304606c0 20.377083 3.7256 39.14545 11.1768 56.305099 7.4512 17.159645 18.36188 32.040285 32.73206 44.641905 14.37017 12.60161 31.6676 22.25392 51.89228 28.9569 20.22469 6.70299 42.84441 10.05449 67.85915 10.05449z"></path>
                <path class="text" d="m1032.69284 1212c-75.044236 0-139.976125-11.52914-194.795672-34.58742-54.819546-23.05828-97.13172-55.90292-126.936522-98.53392-29.804802-42.63101-44.707202-93.707775-44.707202-153.230308 0-59.522534 14.9024-110.733362 44.707202-153.632486 29.804802-42.899123 72.116976-75.743765 126.936522-98.533924 54.819547-22.790159 119.751436-34.185239 194.795672-34.185239 75.57646 0 140.64141 11.39508 195.19484 34.185239s96.73255 55.634801 126.53735 98.533924c29.8048 42.899124 44.7072 94.109952 44.7072 153.632486 0 59.522533-14.9024 110.599298-44.7072 153.230308-29.8048 42.631-71.98392 75.47564-126.53735 98.53392s-119.61838 34.58742-195.19484 34.58742zm0-137.54531c25.01474 0 47.63446-3.3515 67.85914-10.05449 20.22469-6.70298 37.52212-16.35529 51.89229-28.9569 14.37018-12.60162 25.28086-27.48226 32.73206-44.641905 7.4512-17.159649 11.1768-35.928016 11.1768-56.305099v-19.304606c0-20.377083-3.7256-39.01139-11.1768-55.90292s-18.36188-31.504043-32.73206-43.837541c-14.37017-12.333498-31.6676-21.851741-51.89229-28.554729-20.22468-6.702988-42.8444-10.054482-67.85914-10.054482-25.01475 0-47.634463 3.351494-67.85915 10.054482s-37.522116 16.221231-51.892288 28.554729c-14.370173 12.333498-25.280859 26.946011-32.73206 43.837541-7.4512 16.89153-11.1768 35.525837-11.1768 55.90292v19.304606c0 20.377083 3.7256 39.14545 11.1768 56.305099 7.451201 17.159645 18.361887 32.040285 32.73206 44.641905 14.370172 12.60161 31.667601 22.25392 51.892288 28.9569 20.224687 6.70299 42.8444 10.05449 67.85915 10.05449z"></path>
            </g>
            <path class="text" d="m0 1198.68132v-546.065935h493.027548c80.951556 0 146.575758 65.592744 146.575758 146.505494 0 53.958299-29.184121 101.10355-72.635941 126.52648 43.45182 25.424916 72.635941 72.570166 72.635941 126.528461 0 80.91275-65.624202 146.5055-146.575758 146.5055zm386.426997-213.098902h-199.876033v79.912092h199.876033c22.077697 0 39.975207-17.88893 39.975207-39.95605 0-22.06711-17.89751-39.956042-39.975207-39.956042zm0-199.78022h-199.876033v79.912088h199.876033c22.077697 0 39.975207-17.888931 39.975207-39.956044 0-22.067114-17.89751-39.956044-39.975207-39.956044z"></path>
            <path class="text" d="m4383.94766 279.692308v-266.3736267h186.55096v546.0659337h-186.55096l-306.47659-266.373626v266.373626h-186.55096v-546.0659337h186.55096z" fill-rule="nonzero"></path>
            <path class="text" d="m3571.11846 13.3186813 266.50137 546.0659337h-199.87603l-34.64518-79.912088h-277.16143l-34.64518 79.912088h-199.87603l266.50138-546.0659337zm-106.60055 146.5054947-80.8432 186.461538h161.68639z"></path>
            <path class="text" d="m2778.27686 0c75.57646 0 140.64141 11.3950796 195.19484 34.1852389s96.73255 55.6348006 126.53735 98.5339241c19.55747 28.149765 32.69828 59.878375 39.42242 95.18583l-205.50469-.015323c-.96778-2.673556-2.02326-5.30609-3.16643-7.897603-7.4512-16.89153-18.36188-31.504044-32.73205-43.837542-14.37018-12.333498-31.66761-21.851741-51.89229-28.554729-20.22469-6.702988-42.84441-10.054482-67.85915-10.054482s-47.63446 3.351494-67.85915 10.054482c-20.22468 6.702988-37.52211 16.221231-51.89229 28.554729-14.37017 12.333498-25.28086 26.946012-32.73206 43.837542s-11.1768 35.525836-11.1768 55.90292v19.304606c0 20.377083 3.7256 39.14545 11.1768 56.305099s18.36189 32.040283 32.73206 44.6419c14.37018 12.601618 31.66761 22.25392 51.89229 28.956908 20.22469 6.702988 42.84441 10.054482 67.85915 10.054482s47.63446-3.351494 67.85915-10.054482c20.22468-6.702988 37.52211-16.35529 51.89229-28.956908 14.37017-12.601617 25.28085-27.482251 32.73205-44.6419l1.19453-2.954802 206.72197.010273c-6.92828 33.718919-19.81754 64.059516-38.6678 91.021792-29.8048 42.631003-71.98392 75.475645-126.53735 98.533924-54.55343 23.058278-119.61838 34.587418-195.19484 34.587418-75.04423 0-139.97612-11.52914-194.79567-34.587418-54.81955-23.058279-97.13172-55.902921-126.93652-98.533924-29.8048-42.631004-44.7072-93.707773-44.7072-153.230307 0-59.522533 14.9024-110.733362 44.7072-153.632485 29.8048-42.8991235 72.11697-75.7437648 126.93652-98.5339241s119.75144-34.1852389 194.79567-34.1852389z" fill-rule="nonzero"></path>
            <path class="text" d="m1638.98347 13.3186813v268.1613687h-.29315l.08237 3.956035c.78743 20.420462 7.30515 49.9444 14.29065 66.034082 7.4512 17.162328 18.36188 32.045284 32.73206 44.648868 14.37017 12.603585 31.6676 22.257394 51.89228 28.961428 20.22469 6.704034 42.84441 10.056051 67.85915 10.056051 25.01475 0 47.63446-3.352017 67.85915-10.056051s37.52212-16.357843 51.89229-28.961428c14.37017-12.603584 25.28086-27.48654 32.73206-44.648868 7.4512-17.162327 14.07986-49.609853 14.07986-69.990117v-268.1613687h199.87604v268.1613687 4.826905c0 59.531824-14.90241 110.616564-44.70721 153.254222s-71.98392 75.487425-126.53735 98.549303-119.61838 34.592817-195.19484 34.592817c-75.04423 0-139.97612-11.530939-194.79567-34.592817-54.81954-23.061878-97.13172-55.911645-126.93652-98.549303s-44.7072-93.722398-44.7072-153.254222l.03997-4.826905-.03997-268.1613687z" fill-rule="nonzero"></path>
            <path class="text" d="m1032.69284 572.703297c-75.044236 0-139.976125-11.52914-194.795672-34.587418-54.819546-23.058279-97.13172-55.902921-126.936522-98.533924-29.804802-42.631004-44.707202-93.707773-44.707202-153.230307 0-59.522533 14.9024-110.733362 44.707202-153.632485 29.804802-42.8991235 72.116976-75.7437648 126.936522-98.5339241 54.819547-22.7901593 119.751436-34.1852389 194.795672-34.1852389 75.57646 0 140.64141 11.3950796 195.19484 34.1852389s96.73255 55.6348006 126.53735 98.5339241c29.8048 42.899123 44.7072 94.109952 44.7072 153.632485 0 59.522534-14.9024 110.599303-44.7072 153.230307-29.8048 42.631003-71.98392 75.475645-126.53735 98.533924-54.55343 23.058278-119.61838 34.587418-195.19484 34.587418zm0-137.545315c25.01474 0 47.63446-3.351494 67.85914-10.054482 20.22469-6.702988 37.52212-16.35529 51.89229-28.956908 14.37018-12.601617 25.28086-27.482251 32.73206-44.6419s11.1768-35.928016 11.1768-56.305099v-19.304606c0-20.377084-3.7256-39.01139-11.1768-55.90292s-18.36188-31.504044-32.73206-43.837542c-14.37017-12.333498-31.6676-21.851741-51.89229-28.554729-20.22468-6.702988-42.8444-10.054482-67.85914-10.054482-25.01475 0-47.634463 3.351494-67.85915 10.054482s-37.522116 16.221231-51.892288 28.554729c-14.370173 12.333498-25.280859 26.946012-32.73206 43.837542-7.4512 16.89153-11.1768 35.525836-11.1768 55.90292v19.304606c0 20.377083 3.7256 39.14545 11.1768 56.305099 7.451201 17.159649 18.361887 32.040283 32.73206 44.6419 14.370172 12.601618 31.667601 22.25392 51.892288 28.956908s42.8444 10.054482 67.85915 10.054482z" fill-rule="nonzero"></path>
            <path class="text" d="m213.201102 13.3186813 159.874176 190.2706817 159.889101-190.2706817h213.201102l-279.788071 332.9670327-.038375 213.098901h-186.550965v-213.098901l-279.78807-332.9670327z"></path>
        </g>
        <ellipse cx="4703.74931" cy="1259.49451" fill="#44ff87" rx="133.250689" ry="133.186813"></ellipse>
    </g>
</svg>