<svg id="Ebene_1" data-name="Ebene 1" xmlns="http://www.w3.org/2000/svg" viewBox="0 0 220.01 48"><defs><style>.cls-1{fill:#000;}.cls-2{fill:#e14b00;}.cls-3{fill:#ad2300;}.cls-4{fill:#262626;opacity:0.75;isolation:isolate;}.cls-5{fill:#f60;}</style></defs><title>audriga_220x48px-white</title><g id="Ebene_1-2" data-name="Ebene 1"><path class="cls-1" d="M142.3,19.07v4.55H152a2.27,2.27,0,0,0,1-.33,2.3,2.3,0,0,0,.62-0.58,2.23,2.23,0,0,0,.36-0.76,2.32,2.32,0,0,0,.07-0.75,2.27,2.27,0,0,0-1.38-1.9,2.41,2.41,0,0,0-.83-0.17C148.65,19,145.47,19.07,142.3,19.07Zm73.18,7.23H205.11a1.47,1.47,0,0,0-.66.16,1.35,1.35,0,0,0-.64.76,1.37,1.37,0,0,0,.6,1.61,1.43,1.43,0,0,0,.65.18h10.42V26.3h0Zm-139.62,0H65.49a1.48,1.48,0,0,0-.66.16,1.35,1.35,0,0,0-.14,2.31,1.42,1.42,0,0,0,.75.25H75.86V26.3h0Zm43.9-7.24h-4.13V29h8.71a5.71,5.71,0,0,0,1.09-.15,4.93,4.93,0,0,0,2.9-2A5,5,0,0,0,127,19.91l-0.4-.24a5.2,5.2,0,0,0-2.08-.58h-4.71v0Zm4.46,14.47H111.11v-19H125a9.49,9.49,0,0,1,.51,18.85,10.43,10.43,0,0,1-1.17.09h-0.14v0.06Zm39.75,0h4.52v-19H164v19h0Zm29.82,0H182.48a11.1,11.1,0,0,1-1.19-.08,9.49,9.49,0,0,1,.18-18.85,5.54,5.54,0,0,0,1-.06h11.31v4.52H182a5.65,5.65,0,0,0-.72.12,4.9,4.9,0,0,0-1.31.54,5,5,0,0,0,0,8.53,4.93,4.93,0,0,0,1.85.66,6,6,0,0,0,.74,0h6.76V23.59h4.52v9.94Zm-51.49,0h-4.52v-19H152a8.13,8.13,0,0,1,.85.08,6.76,6.76,0,0,1,5.7,6,6.91,6.91,0,0,1,0,1.79,6.74,6.74,0,0,1-2.62,4.38,7,7,0,0,1-1.61.89h-0.08L160,33.53h-6.8l-5.42-5.42H142.3v5.42Zm67.45-19h2.77a7.43,7.43,0,0,1,1.25.13,7.69,7.69,0,0,1,5.77,4.9,8.08,8.08,0,0,1,.47,2.63V33.53H204.52a5.48,5.48,0,0,1-.6-0.1,5.87,5.87,0,0,1-.7-11.31,6.13,6.13,0,0,1,1.87-.31h10.37a3.19,3.19,0,0,0-1.89-2.46,3.32,3.32,0,0,0-1.19-.25H201V14.56Zm-139.62,0H72.9a7.37,7.37,0,0,1,1.25.13,7.7,7.7,0,0,1,5.77,4.9,8.11,8.11,0,0,1,.47,2.63V33.53H65.11a6.06,6.06,0,0,1-2.39-.67,5.86,5.86,0,0,1-2.83-7,5.94,5.94,0,0,1,1.11-2,5.85,5.85,0,0,1,2.59-1.76,6.13,6.13,0,0,1,1.88-.31H75.83a3.12,3.12,0,0,0-.25-0.85,3.21,3.21,0,0,0-1.64-1.61,3.32,3.32,0,0,0-1.18-.25H61.4V14.56Zm36,3.66V28a6.06,6.06,0,0,1-.29,1.47,5.81,5.81,0,0,1-.75,1.49,5.94,5.94,0,0,1-.94,1A5.87,5.87,0,0,1,101,33.48a15.22,15.22,0,0,1-1.75.06H90.71A6.06,6.06,0,0,1,88.82,33a5.94,5.94,0,0,1-3.07-3.23,6.12,6.12,0,0,1-.39-1.86V14.56h4.52V27.77a1.84,1.84,0,0,0,0,.2,1.38,1.38,0,0,0,.83,1,1.46,1.46,0,0,0,.4.09h1.2L95.8,29.1h4.83a1.38,1.38,0,0,0,.91-0.85,1.51,1.51,0,0,0,.08-0.47V14.56h4.52q0,1.82,0,3.64h0Z"/><polygon class="cls-2" points="20.79 0 41.57 12 41.57 25.71 20.79 37.72 8.91 30.86 8.91 17.14 20.79 10.29 32.66 17.14 32.66 25.71 37.12 23.14 37.12 14.57 20.79 5.14 4.45 14.57 4.45 33.43 20.79 42.86 41.57 30.86 41.57 36 20.79 48 0 36 0 12 20.79 0"/><path class="cls-3" d="M41.57,12V25.71l-20.78,12V24l11.88-6.86v8.57l4.45-2.57V14.57ZM20.78,42.86l20.78-12V36L20.78,48V42.86Z"/><polygon class="cls-4" points="10.4 17.75 20.78 26.16 31.16 17.75 10.4 17.75"/><polygon class="cls-5" points="8.91 17.15 20.79 10.29 32.66 17.15 20.79 24.01 8.91 17.15"/><polygon class="cls-5" points="4.45 14.57 0 12 20.79 0 41.57 12 37.12 14.57 20.79 5.14 4.45 14.57"/></g></svg>