<?xml version="1.0" encoding="utf-8"?>
<!-- Generator: Adobe Illustrator 22.1.0, SVG Export Plug-In . SVG Version: 6.00 Build 0)  -->
<svg version="1.1" id="Logo__x26__Claim" xmlns="http://www.w3.org/2000/svg" xmlns:xlink="http://www.w3.org/1999/xlink" x="0px"
	 y="0px" viewBox="0 0 766.8 228.3" style="enable-background:new 0 0 766.8 228.3;" xml:space="preserve">
<style type="text/css">
	.st0{fill:#284B73;}
	.st1{fill:#FFFFFF;}
</style>
<g>
	<g>
		<path class="st0" d="M83.3,158.1c0,4.1-1.4,7.3-4.1,9.6c-2.7,2.3-6.6,3.4-11.6,3.4c-2.1,0-3.9-0.1-5.5-0.4c-1.6-0.3-3-0.8-4.4-1.4
			v-5c3.2,1.6,6.5,2.5,9.9,2.5c3.2,0,5.7-0.7,7.5-2.2s2.8-3.5,2.8-6.1c0-1.5-0.5-2.9-1.5-4s-2.9-2.5-5.7-4.1c-2.9-1.7-5-3.3-6.1-5
			c-1.1-1.7-1.7-3.6-1.7-5.9c0-3.6,1.3-6.6,3.9-8.9c2.6-2.3,6-3.4,10.2-3.4c1.9,0,3.7,0.2,5.4,0.6c1.7,0.4,3.4,1,5.3,1.9l-1.9,4.4
			c-1.3-0.7-2.7-1.3-4.3-1.8c-1.6-0.4-3.1-0.6-4.4-0.6c-2.6,0-4.7,0.7-6.3,2c-1.6,1.4-2.4,3.2-2.4,5.5c0,1.1,0.2,2,0.5,2.7
			s0.9,1.5,1.6,2.1c0.7,0.7,2.1,1.6,4.2,2.8c2.9,1.7,4.8,3.1,5.8,4c1,1,1.8,2.1,2.3,3.2S83.3,156.6,83.3,158.1z"/>
		<path class="st0" d="M98.2,167.1c1.1,0,2.5-0.3,4.2-0.8v3.8c-0.7,0.3-1.5,0.5-2.5,0.7c-1,0.2-1.8,0.3-2.3,0.3
			c-2.4,0-4.3-0.6-5.6-1.7s-1.9-2.9-1.9-5.2c0-1.3,0.2-2.8,0.5-4.4l3.7-17.6h-5l0.4-2.1l5.4-2.3l3.7-6.7h2.9l-1.6,7.4h8l-0.8,3.7h-8
			l-3.8,17.7c-0.4,1.7-0.5,3-0.5,3.9c0,1.1,0.3,1.9,0.8,2.5C96.4,166.8,97.2,167.1,98.2,167.1z"/>
		<path class="st0" d="M124.7,137.9c1.8,0,3.4,0.5,4.8,1.4c1.4,1,2.5,2.4,3.3,4.2h0.3l2-5h3.7l-6.8,32.1h-3.9l0.8-6.1h-0.2
			c-3.5,4.5-7.2,6.7-11,6.7c-2.7,0-4.8-1-6.4-2.9c-1.5-1.9-2.3-4.6-2.3-7.9c0-4.1,0.7-7.8,2.1-11.3c1.4-3.5,3.3-6.2,5.7-8.2
			C119.1,138.9,121.8,137.9,124.7,137.9z M119.2,167.1c1.9,0,3.8-0.9,5.6-2.7c1.9-1.8,3.4-4.2,4.6-7c1.2-2.9,1.8-5.8,1.8-8.7
			c0-2-0.5-3.6-1.6-4.8c-1.1-1.2-2.5-1.8-4.3-1.8c-2,0-3.9,0.8-5.7,2.5c-1.7,1.7-3.1,4-4.1,6.8c-1,2.9-1.5,5.9-1.5,9.1
			c0,2.2,0.5,3.9,1.4,5C116.2,166.5,117.5,167.1,119.2,167.1z"/>
		<path class="st0" d="M142.8,138.5h4.9l2.2,15.9c0.2,1.3,0.4,3.3,0.6,6c0.2,2.6,0.3,4.7,0.3,6.3h0.2c0.7-1.7,1.5-3.6,2.5-5.9
			c1-2.2,1.8-3.7,2.3-4.6l9.5-17.8h5.2L150,176c-1.8,3.4-3.6,5.7-5.4,7c-1.8,1.3-3.9,2-6.4,2c-1.4,0-2.8-0.2-4.1-0.6v-3.9
			c1.2,0.4,2.5,0.5,3.8,0.5c1.6,0,3-0.5,4.1-1.5c1.1-1,2.2-2.4,3.3-4.4l2.2-4L142.8,138.5z"/>
		<path class="st0" d="M222.2,144c0,5.2-0.9,9.9-2.6,14.1c-1.7,4.1-4.2,7.4-7.4,9.6s-6.9,3.4-11.1,3.4c-5,0-8.9-1.5-11.7-4.4
			c-2.8-2.9-4.2-7-4.2-12.3c0-5.1,0.9-9.8,2.8-14.1c1.9-4.3,4.4-7.5,7.7-9.8c3.3-2.3,6.9-3.5,11-3.5c4.8,0,8.5,1.5,11.2,4.5
			C220.8,134.6,222.2,138.7,222.2,144z M206.5,131.5c-3.1,0-5.8,1-8.2,3c-2.4,2-4.3,4.7-5.6,8.2c-1.3,3.5-2,7.4-2,11.6
			c0,3.9,1,6.9,2.9,9.1c1.9,2.2,4.5,3.3,7.8,3.3c3,0,5.6-1,8-2.9c2.4-1.9,4.2-4.6,5.6-8.2c1.4-3.5,2-7.5,2-11.8
			c0-3.9-0.9-6.9-2.8-9.1C212.3,132.6,209.7,131.5,206.5,131.5z"/>
		<path class="st0" d="M237.4,171.1c-1.9,0-3.6-0.5-5-1.5c-1.4-1-2.5-2.3-3.3-4.1h-0.3l-0.1,1.1c-0.1,0.5-0.2,1.2-0.3,2
			c-0.1,0.9-1.3,6.3-3.4,16.2h-4.9l9.8-46.5h4.1l-0.8,6.1h0.2c3.5-4.4,7.1-6.6,10.9-6.6c2.7,0,4.8,1,6.3,2.9c1.5,1.9,2.3,4.6,2.3,8
			c0,4.1-0.7,7.9-2,11.4c-1.3,3.5-3.2,6.1-5.6,8.1C243.1,170.2,240.4,171.1,237.4,171.1z M242.9,142c-1.9,0-3.8,0.9-5.7,2.8
			c-1.9,1.9-3.5,4.2-4.6,7c-1.1,2.8-1.7,5.7-1.7,8.6c0,2.1,0.5,3.8,1.6,4.9c1.1,1.1,2.6,1.7,4.7,1.7c1.9,0,3.7-0.8,5.4-2.4
			c1.7-1.6,3-3.8,4-6.7s1.5-6,1.5-9.3C248.1,144.2,246.3,142,242.9,142z"/>
		<path class="st0" d="M269.2,171.1c-3.6,0-6.4-1.1-8.5-3.2c-2-2.1-3.1-5.1-3.1-8.8c0-3.7,0.7-7.2,2.2-10.5c1.5-3.4,3.4-6,5.8-7.9
			c2.4-1.9,5-2.8,7.9-2.8c3,0,5.2,0.6,6.7,1.9c1.5,1.3,2.3,3.1,2.3,5.4c0,3.5-1.6,6.3-4.9,8.3c-3.2,2-7.9,3-13.9,3h-1l-0.1,2.3
			c0,2.6,0.6,4.5,1.8,6c1.2,1.4,3.1,2.1,5.6,2.1c1.2,0,2.5-0.2,3.8-0.5c1.3-0.4,2.9-1,4.8-1.9v4.3c-1.8,0.9-3.5,1.5-4.9,1.8
			C272.5,171,270.9,171.1,269.2,171.1z M273.3,142.1c-2,0-3.9,0.9-5.7,2.8c-1.8,1.8-3.1,4.4-4.1,7.6h0.4c4.4,0,7.9-0.6,10.2-1.7
			c2.4-1.2,3.6-2.8,3.6-5c0-1-0.4-1.9-1.1-2.6C275.9,142.4,274.8,142.1,273.3,142.1z"/>
		<path class="st0" d="M305.3,170.5l4.3-20.2c0.4-2,0.6-3.4,0.6-4.2c0-1.2-0.3-2.2-1-3c-0.7-0.7-1.8-1.1-3.3-1.1
			c-1.7,0-3.4,0.6-5.1,1.8s-3.1,2.8-4.4,5c-1.3,2.2-2.2,4.8-2.9,7.9l-3,13.9h-4.9l6.8-32.1h4.1l-0.6,5.9h0.3c1.9-2.4,3.7-4.1,5.4-5
			c1.7-1,3.6-1.5,5.4-1.5c2.5,0,4.4,0.7,5.9,2c1.4,1.4,2.1,3.3,2.1,5.7c0,1.5-0.2,3.3-0.7,5.3l-4.2,19.7H305.3z"/>
		<path class="st0" d="M319.8,168.4c0-1.5,0.4-2.7,1.2-3.6c0.8-0.9,1.9-1.3,3.3-1.3c0.8,0,1.5,0.3,2,0.8s0.8,1.3,0.8,2.3
			c0,1.4-0.4,2.5-1.2,3.5c-0.8,0.9-1.8,1.4-3.2,1.4c-0.9,0-1.6-0.3-2.1-0.8C320,170.1,319.8,169.4,319.8,168.4z"/>
	</g>
	<g>
		<path class="st0" d="M491.4,82.9v62.5c0,1.1,0.4,2.3,1.3,3.1c-0.9-0.9-2-1.3-3.1-1.3h-83.4c-1.1,0-2.3,0.4-3.1,1.3
			c0.8-0.9,1.3-2,1.3-3.1V82.9c0-1.1-0.4-2.3-1.3-3.1c0.9,0.9,2,1.3,3.1,1.3h83.4c1.1,0,2.3-0.4,3.1-1.3
			C491.9,80.7,491.4,81.8,491.4,82.9 M526.3,138.2v-48c0-18-14.6-32.6-32.6-32.6h-91.6c-18,0-32.6,14.6-32.6,32.6v48
			c0,18,14.6,32.6,32.6,32.6h91.6C511.7,170.8,526.3,156.2,526.3,138.2"/>
		<path class="st0" d="M604.6,134c0,1.3-0.5,2.5-1.4,3.3l-30.8,30.8c-1.6,1.7-3.9,2.7-6.5,2.7h-44.2l57.6-57.6
			c0.8-0.8,2-1.3,3.2-1.3c-1.2,0-2.4-0.5-3.2-1.3l-53.1-53h47.9l29,29c0.9,0.8,1.4,2,1.4,3.3c0-1.3,0.6-2.5,1.4-3.3l29-29H683
			l-53.1,53c-0.8,0.8-2,1.3-3.2,1.3c1.2,0,2.4,0.5,3.2,1.3l57.6,57.6h-44.2c-2.5,0-4.8-1.1-6.5-2.7l-30.8-30.8
			C605.2,136.5,604.6,135.3,604.6,134"/>
	</g>
</g>
</svg>
